<svg width="1053" height="208" viewBox="0 0 1053 208" fill="none" xmlns="http://www.w3.org/2000/svg">
<path d="M67.1406 112L63.6406 203H0.890625L12.3906 15.5H90.6406L113.891 111H116.141L139.391 15.5H217.891L229.141 203H166.391L162.891 112H160.891L137.891 203H92.1406L68.8906 112H67.1406ZM386.506 203H326.506V60.5L386.506 53V203ZM323.256 24.75C323.256 20.25 323.756 16.5 324.756 13.5C325.756 10.3333 327.506 7.83333 330.006 5.99999C332.506 3.99999 335.923 2.58333 340.256 1.74998C344.589 0.916651 350.089 0.499985 356.756 0.499985C363.423 0.499985 368.839 0.916651 373.006 1.74998C377.339 2.58333 380.756 3.99999 383.256 5.99999C385.756 7.83333 387.506 10.3333 388.506 13.5C389.506 16.5 390.006 20.25 390.006 24.75C390.006 29.25 389.506 33 388.506 36C387.506 39 385.756 41.5 383.256 43.5C380.756 45.3333 377.339 46.6667 373.006 47.5C368.839 48.1667 363.423 48.5 356.756 48.5C351.923 48.5 347.423 48.3333 343.256 48C339.256 47.6667 335.756 46.75 332.756 45.25C329.756 43.5833 327.423 41.1667 325.756 38C324.089 34.8333 323.256 30.4167 323.256 24.75ZM491.545 7.99999L551.545 3.49999V160C554.712 160.667 557.545 161.167 560.045 161.5C562.545 161.833 564.628 162.083 566.295 162.25L563.545 206.25C538.045 206.25 521.128 204.75 512.795 201.75C505.795 199.25 500.462 196 496.795 192C493.295 188 491.545 182.25 491.545 174.75V7.99999ZM730.27 48.5C778.27 48.5 802.27 65 802.27 98V203H772.27L755.27 186C752.27 189.333 748.686 192.333 744.52 195C740.52 197.667 736.186 199.917 731.52 201.75C726.853 203.583 722.103 205 717.27 206C712.436 207 707.77 207.5 703.27 207.5C694.77 207.5 687.103 206.583 680.27 204.75C673.603 203.083 667.936 200.333 663.27 196.5C658.603 192.667 655.02 187.583 652.52 181.25C650.02 174.917 648.77 167.167 648.77 158C648.77 122 675.936 104 730.27 104H742.27V93.25C739.103 93.0833 736.186 92.9167 733.52 92.75C731.02 92.5833 728.686 92.5 726.52 92.5C704.02 92.5 684.603 95.25 668.27 100.75L661.02 57.75C681.02 51.5833 704.103 48.5 730.27 48.5ZM709.27 151.5V163.75H721.77C730.436 163.75 736.103 162.75 738.77 160.75C741.103 158.583 742.27 156 742.27 153V138.75H730.02C722.853 138.75 717.603 139.5 714.27 141C710.936 142.5 709.27 146 709.27 151.5ZM1052.64 3.49999V203H1022.64L1009.64 190.5C1001.14 201.833 985.476 207.5 962.643 207.5C950.643 207.5 940.559 205.333 932.393 201C924.226 196.667 917.559 190.917 912.393 183.75C907.393 176.417 903.726 167.917 901.393 158.25C899.226 148.583 898.143 138.5 898.143 128C898.143 118 899.143 108.5 901.143 99.5C903.143 90.3333 906.476 82.3333 911.143 75.5C915.809 68.6667 921.976 63.25 929.643 59.25C937.309 55.0833 946.809 53 958.143 53H992.643V7.99999L1052.64 3.49999ZM962.643 105V163.75H971.893C978.726 163.75 983.726 163.167 986.893 162C990.226 160.667 992.143 157.667 992.643 153V92.25H983.393C976.059 92.25 970.726 93 967.393 94.5C964.226 96 962.643 99.5 962.643 105Z" fill="white"/>
</svg>
